<svg width="18" height="20" viewBox="0 0 18 20" fill="none" xmlns="http://www.w3.org/2000/svg">
<path d="M14.8333 9.16663H3.16667C2.24619 9.16663 1.5 9.91282 1.5 10.8333V16.6666C1.5 17.5871 2.24619 18.3333 3.16667 18.3333H14.8333C15.7538 18.3333 16.5 17.5871 16.5 16.6666V10.8333C16.5 9.91282 15.7538 9.16663 14.8333 9.16663Z" stroke="#406798" stroke-width="2" stroke-linecap="round" stroke-linejoin="round"/>
<path d="M4.8335 9.16663V5.83329C4.8335 4.72822 5.27248 3.66842 6.05388 2.88701C6.83529 2.10561 7.89509 1.66663 9.00016 1.66663C10.1052 1.66663 11.165 2.10561 11.9464 2.88701C12.7278 3.66842 13.1668 4.72822 13.1668 5.83329V9.16663" stroke="#406798" stroke-width="2" stroke-linecap="round" stroke-linejoin="round"/>
</svg>
