<svg width="24" height="24" viewBox="0 0 24 24" fill="none" xmlns="http://www.w3.org/2000/svg">
<g clip-path="url(#clip0)">
<path d="M22.5118 6.41209C22.3932 5.9381 22.1515 5.5038 21.8113 5.15307C21.4711 4.80235 21.0444 4.54761 20.5742 4.41459C18.8564 3.99512 11.985 3.99512 11.985 3.99512C11.985 3.99512 5.11359 3.99512 3.39574 4.45454C2.92558 4.58756 2.49884 4.8423 2.15863 5.19302C1.81843 5.54375 1.5768 5.97805 1.45816 6.45204C1.14377 8.19542 0.989987 9.96396 0.99874 11.7354C0.987533 13.5202 1.14133 15.3023 1.45816 17.0588C1.58896 17.518 1.836 17.9358 2.17541 18.2717C2.51482 18.6076 2.93514 18.8503 3.39574 18.9764C5.11359 19.4358 11.985 19.4358 11.985 19.4358C11.985 19.4358 18.8564 19.4358 20.5742 18.9764C21.0444 18.8433 21.4711 18.5886 21.8113 18.2379C22.1515 17.8872 22.3932 17.4529 22.5118 16.9789C22.8238 15.2486 22.9776 13.4936 22.9712 11.7354C22.9824 9.95062 22.8287 8.16859 22.5118 6.41209V6.41209Z" stroke="#406798" stroke-linecap="round" stroke-linejoin="round"/>
<path d="M9.73779 15.0013L15.4806 11.7354L9.73779 8.46948V15.0013Z" stroke="#406798" stroke-linecap="round" stroke-linejoin="round"/>
</g>
<defs>
<clipPath id="clip0">
<rect width="23.97" height="23.97" fill="white"/>
</clipPath>
</defs>
</svg>
