<svg width="26" height="24" viewBox="0 0 26 24" fill="none" xmlns="http://www.w3.org/2000/svg">
<g clip-path="url(#clip0)">
<path d="M15.1371 23.9181H11.1316C10.4625 23.9181 9.91828 23.3966 9.91828 22.7556V14.0993H7.58139C6.91235 14.0993 6.3681 13.5777 6.3681 12.9368V9.22758C6.3681 8.58655 6.91235 8.0651 7.58139 8.0651H9.91828V6.20765C9.91828 4.36592 10.5219 2.799 11.6636 1.67656C12.8105 0.548994 14.4133 -0.046875 16.2986 -0.046875L19.3534 -0.0421212C20.0213 -0.0410242 20.5646 0.48043 20.5646 1.12036V4.5643C20.5646 5.20533 20.0206 5.72678 19.3517 5.72678L17.295 5.72751C16.6677 5.72751 16.508 5.848 16.4738 5.88494C16.4175 5.94619 16.3506 6.11934 16.3506 6.59746V8.06491H19.1971C19.4115 8.06491 19.6191 8.11556 19.7975 8.211C20.1824 8.41706 20.4217 8.80669 20.4217 9.22776L20.4202 12.937C20.4202 13.5777 19.8759 14.0991 19.2069 14.0991H16.3506V22.7556C16.3506 23.3966 15.8061 23.9181 15.1371 23.9181ZM11.3846 22.5131H14.884V13.4703C14.884 13.0423 15.2476 12.6942 15.6941 12.6942H18.9538L18.9552 9.47002H15.6939C15.2474 9.47002 14.884 9.1219 14.884 8.69388V6.59746C14.884 6.04858 14.9422 5.42437 15.3747 4.95521C15.8971 4.38804 16.7206 4.32259 17.2946 4.32259L19.0983 4.32186V1.36244L16.2975 1.35805C13.2675 1.35805 11.3846 3.21642 11.3846 6.20765V8.69388C11.3846 9.12172 11.0213 9.47002 10.5747 9.47002H7.83443V12.6942H10.5747C11.0213 12.6942 11.3846 13.0423 11.3846 13.4703V22.5131ZM19.3506 1.36281H19.3508H19.3506Z" fill="#406798"/>
</g>
<defs>
<clipPath id="clip0">
<rect x="0.969971" width="24.9635" height="23.9649" fill="white"/>
</clipPath>
</defs>
</svg>
