<svg width="25" height="24" viewBox="0 0 25 24" fill="none" xmlns="http://www.w3.org/2000/svg">
<g clip-path="url(#clip0)">
<path d="M18.4112 0H7.42043C3.84339 0 0.93335 2.91004 0.93335 6.48708V17.478C0.93335 21.0548 3.84339 23.9649 7.42043 23.9649H18.4113C21.9882 23.9649 24.8982 21.0548 24.8982 17.478V6.48708C24.8982 2.91004 21.9882 0 18.4112 0V0ZM23.4933 17.478C23.4933 20.2802 21.2135 22.56 18.4112 22.56H7.42043C4.61808 22.56 2.33827 20.2802 2.33827 17.478V6.48708C2.33827 3.68473 4.61808 1.40492 7.42043 1.40492H18.4113C21.2135 1.40492 23.4933 3.68473 23.4933 6.48708V17.478Z" fill="#406798"/>
<path d="M12.9158 5.42969C9.30258 5.42969 6.3631 8.36917 6.3631 11.9824C6.3631 15.5956 9.30258 18.5351 12.9158 18.5351C16.5291 18.5351 19.4685 15.5956 19.4685 11.9824C19.4685 8.36917 16.5291 5.42969 12.9158 5.42969ZM12.9158 17.1302C10.0774 17.1302 7.76802 14.821 7.76802 11.9824C7.76802 9.14403 10.0774 6.83461 12.9158 6.83461C15.7544 6.83461 18.0636 9.14403 18.0636 11.9824C18.0636 14.821 15.7544 17.1302 12.9158 17.1302Z" fill="#406798"/>
<path d="M19.6252 3.10254C18.5574 3.10254 17.689 3.9712 17.689 5.03879C17.689 6.10656 18.5574 6.97522 19.6252 6.97522C20.693 6.97522 21.5616 6.10656 21.5616 5.03879C21.5616 3.97102 20.693 3.10254 19.6252 3.10254ZM19.6252 5.57012C19.3323 5.57012 19.0939 5.3317 19.0939 5.03879C19.0939 4.7457 19.3323 4.50746 19.6252 4.50746C19.9183 4.50746 20.1567 4.7457 20.1567 5.03879C20.1567 5.3317 19.9183 5.57012 19.6252 5.57012Z" fill="#406798"/>
</g>
<defs>
<clipPath id="clip0">
<rect x="0.93335" width="23.9649" height="23.9649" fill="white"/>
</clipPath>
</defs>
</svg>
